<svg width="24" height="24" viewBox="0 0 24 24" fill="none" xmlns="http://www.w3.org/2000/svg">
<path d="M5 9H19V5H5V9ZM7 5.5C7.83 5.5 8.5 6.17 8.5 7C8.5 7.83 7.83 8.5 7 8.5C6.17 8.5 5.5 7.83 5.5 7C5.5 6.17 6.17 5.5 7 5.5ZM5 19H19V15H5V19ZM7 15.5C7.83 15.5 8.5 16.17 8.5 17C8.5 17.83 7.83 18.5 7 18.5C6.17 18.5 5.5 17.83 5.5 17C5.5 16.17 6.17 15.5 7 15.5Z" fill="#C7F1FF"/>
<path d="M20 13H4C3.45 13 3 13.45 3 14V20C3 20.55 3.45 21 4 21H20C20.55 21 21 20.55 21 20V14C21 13.45 20.55 13 20 13ZM19 19H5V15H19V19ZM7 18.5C7.83 18.5 8.5 17.83 8.5 17C8.5 16.17 7.83 15.5 7 15.5C6.17 15.5 5.5 16.17 5.5 17C5.5 17.83 6.17 18.5 7 18.5ZM20 3H4C3.45 3 3 3.45 3 4V10C3 10.55 3.45 11 4 11H20C20.55 11 21 10.55 21 10V4C21 3.45 20.55 3 20 3ZM19 9H5V5H19V9ZM7 8.5C7.83 8.5 8.5 7.83 8.5 7C8.5 6.17 7.83 5.5 7 5.5C6.17 5.5 5.5 6.17 5.5 7C5.5 7.83 6.17 8.5 7 8.5Z" fill="#19303D"/>
</svg>
