<svg width="32" height="32" viewBox="0 0 32 32" fill="none" xmlns="http://www.w3.org/2000/svg">
    <path d="M24.2533 16.5863L19.9333 14.4263C21.6533 13.093 22.76 11.013 22.76 8.66634C22.76 4.62634 19.4666 1.33301 15.4266 1.33301C11.3866 1.33301 8.09331 4.62634 8.09331 8.66634C8.09331 11.5063 9.71998 13.973 12.0933 15.1863V19.533C9.31998 18.9463 9.41331 18.9463 9.07998 18.9463C8.37331 18.9463 7.70665 19.2263 7.19998 19.733L5.33331 21.6263L12.12 28.413C12.6933 28.9997 13.4933 29.333 14.32 29.333H22.72C24.0266 29.333 25.1333 28.3997 25.3466 27.1063L26.4133 20.8263C26.7066 19.093 25.84 17.3863 24.2533 16.5863ZM10.76 8.66634C10.76 6.09301 12.8533 3.99967 15.4266 3.99967C18 3.99967 20.0933 6.09301 20.0933 8.66634C20.0933 9.93301 19.5866 11.0797 18.76 11.9197V8.66634C18.76 6.82634 17.2666 5.33301 15.4266 5.33301C13.5866 5.33301 12.0933 6.82634 12.0933 8.66634V11.9197C11.2666 11.0797 10.76 9.93301 10.76 8.66634ZM23.7866 20.3863L22.72 26.6663H14.32C14.2 26.6663 14.0933 26.613 14 26.533L9.09331 21.6263L14.76 22.813V8.66634C14.76 8.29301 15.0533 7.99967 15.4266 7.99967C15.8 7.99967 16.0933 8.29301 16.0933 8.66634V16.6663H18.44L23.0533 18.973C23.5866 19.2397 23.88 19.813 23.7866 20.3863Z" fill="#19303D"/>
    <path d="M23.0667 18.9733L18.4533 16.6667H16.0933V8.66667C16.0933 8.29333 15.8 8 15.4267 8C15.0533 8 14.76 8.29333 14.76 8.66667V22.8133L9.09332 21.6267L14 26.5333C14.08 26.6133 14.2 26.6667 14.32 26.6667H22.72L23.7867 20.3867C23.88 19.8133 23.5867 19.24 23.0667 18.9733Z" fill="#C7F1FF"/>
</svg>
