<svg width="108" height="48" viewBox="0 0 108 48" fill="none" xmlns="http://www.w3.org/2000/svg">
<path d="M20.3435 17.1648C20.3435 18.6338 20.9648 19.3048 22.7154 19.7217L22.7127 19.7245L25.0045 20.2795C28.3761 21.1079 29.881 22.7646 29.881 25.6474C29.881 29.5049 27.255 31.7167 22.9971 31.7167C18.7392 31.7167 16.3203 29.7645 16 26.0644H19.6863C19.921 27.9227 21.0835 28.8643 22.9971 28.8643C24.9107 28.8643 26.1477 27.8288 26.1477 26.2273C26.1477 24.7169 25.3828 23.9575 23.4251 23.5185L21.1111 22.9883C19.0567 22.4968 16.6102 21.1659 16.6102 17.5955C16.6102 14.2212 19.1976 11.9542 23.0468 11.9542C27.1887 11.9542 29.3342 13.5999 29.5993 16.9798H25.7611C25.5789 15.4859 24.6732 14.7569 22.9971 14.7569C21.4342 14.7569 20.3435 15.6958 20.3435 17.1648Z" fill="#1D1D1D"/>
<path d="M74.2158 21.9637C73.9424 20.5638 73.0367 19.9121 71.3799 19.9121H71.1397C68.9638 19.9121 67.5556 21.6296 67.5556 24.2832C67.5556 26.9368 68.961 28.6543 71.1397 28.6543H71.3799C73.0367 28.6543 73.9396 28.0027 74.2158 26.6027H77.8386C77.5045 29.8997 75.1739 31.7111 71.2612 31.7111C67.1165 31.7111 64.2227 28.6571 64.2227 24.2832C64.2227 19.9093 67.1165 16.8554 71.2612 16.8554C75.1739 16.8554 77.5045 18.6695 77.8386 21.9637H74.2158Z" fill="#1D1D1D"/>
<path d="M59.8683 26.8569V19.8211H63.7065V16.8389H61.213C60.4703 16.8389 59.8655 16.2397 59.8655 15.5052V11.9542H56.2124V16.8417H53.1722C51.891 16.8417 50.7367 17.6093 50.2342 18.7994L47.0753 26.2853L43.7065 18.7387C43.1929 17.5845 42.0497 16.8389 40.7961 16.8389H36.4223C35.6795 16.8389 35.0748 16.2397 35.0748 15.5052V11.9542H31.4216V27.9172C31.4216 30.3996 32.7332 31.714 35.2128 31.714H38.6837V28.66H36.8751C35.4448 28.66 35.0748 28.29 35.0748 26.8569V19.8211H39.5287C39.9401 19.8211 40.2439 19.9896 40.3875 20.2905L45.3025 30.6509V31.4123C45.3025 32.873 44.8994 32.9365 43.5022 32.9365H38.9129V36.0457H44.9822C47.321 36.0457 48.7735 34.3807 48.7735 31.7023L48.7873 30.4741L53.5008 20.2988C53.6444 19.9896 53.9509 19.8211 54.3651 19.8211H56.2096V27.9144C56.2096 30.3968 57.5212 31.7112 60.0008 31.7112H63.5767V28.6572H61.6631C60.2328 28.6572 59.8628 28.2872 59.8628 26.8541L59.8683 26.8569Z" fill="#1D1D1D"/>
<path d="M82.9899 18.805L83.2357 18.504H83.2329C84.0862 17.463 84.9532 16.8583 86.8778 16.8583C90.1306 16.8583 92 18.9016 92 22.4692V31.714H88.3468V22.9248C88.3468 21.8203 88.032 20.9422 87.4356 20.3817C86.9551 19.9288 86.309 19.7162 85.569 19.7604C83.81 19.8708 82.9899 21.2377 82.9899 24.068V31.714H79.3368V11.9542H82.9899V18.805Z" fill="#1D1D1D"/>
</svg>
