<svg width="134" height="26" viewBox="0 0 134 26" fill="none" xmlns="http://www.w3.org/2000/svg">
<path d="M81.6154 6.44935H86.6192C87.5123 6.44935 88.32 6.59382 89.0423 6.88275C89.7778 7.17168 90.4016 7.60508 90.9138 8.18295C91.4391 8.74768 91.8397 9.46345 92.1155 10.3302C92.4044 11.1839 92.5489 12.1821 92.5489 13.3247C92.5489 14.4673 92.4044 15.472 92.1155 16.3388C91.8397 17.1924 91.4391 17.9082 90.9138 18.4861C90.4016 19.0508 89.7778 19.4776 89.0423 19.7666C88.32 20.0555 87.5123 20.2 86.6192 20.2H81.6154V6.44935ZM86.6192 17.8951C87.5911 17.8951 88.3594 17.6127 88.9241 17.048C89.502 16.4701 89.7909 15.5902 89.7909 14.4082V12.2412C89.7909 11.0592 89.502 10.1858 88.9241 9.62105C88.3594 9.04318 87.5911 8.75425 86.6192 8.75425H84.2158V17.8951H86.6192ZM99.1967 20.4364C98.435 20.4364 97.7521 20.3116 97.1479 20.0621C96.5569 19.7994 96.0513 19.4382 95.631 18.9786C95.2239 18.5058 94.9087 17.941 94.6854 17.2844C94.4622 16.6146 94.3505 15.866 94.3505 15.0386C94.3505 14.2243 94.4556 13.4888 94.6657 12.8322C94.889 12.1755 95.2042 11.6173 95.6113 11.1577C96.0185 10.6849 96.5175 10.3237 97.1085 10.0742C97.6995 9.81148 98.3693 9.68015 99.1179 9.68015C99.9191 9.68015 100.615 9.81805 101.206 10.0939C101.797 10.3697 102.283 10.744 102.664 11.2168C103.045 11.6896 103.327 12.2412 103.511 12.8716C103.708 13.4888 103.807 14.1521 103.807 14.8613V15.6887H96.9706V15.9448C96.9706 16.6934 97.1808 17.2975 97.601 17.7572C98.0213 18.2037 98.6451 18.427 99.4725 18.427C100.103 18.427 100.615 18.2956 101.009 18.033C101.416 17.7703 101.777 17.4354 102.093 17.0283L103.452 18.5452C103.032 19.1362 102.454 19.6024 101.718 19.9439C100.996 20.2722 100.155 20.4364 99.1967 20.4364ZM99.1573 11.5714C98.4875 11.5714 97.9556 11.7946 97.5616 12.2412C97.1676 12.6877 96.9706 13.2656 96.9706 13.9748V14.1324H101.186V13.9551C101.186 13.2459 101.009 12.6746 100.655 12.2412C100.313 11.7946 99.814 11.5714 99.1573 11.5714ZM106.025 20.2V9.91655H108.547V11.6305H108.645C108.842 11.092 109.157 10.6323 109.591 10.2515C110.024 9.87058 110.628 9.68015 111.403 9.68015C112.112 9.68015 112.723 9.85088 113.235 10.1924C113.747 10.5338 114.128 11.0526 114.378 11.7487H114.417C114.601 11.1708 114.962 10.6849 115.501 10.2909C116.052 9.88372 116.742 9.68015 117.569 9.68015C118.581 9.68015 119.355 10.0282 119.894 10.7243C120.445 11.4203 120.721 12.4119 120.721 13.699V20.2H118.2V13.9551C118.2 12.4841 117.648 11.7487 116.545 11.7487C116.295 11.7487 116.052 11.7881 115.816 11.8669C115.593 11.9325 115.389 12.0376 115.205 12.1821C115.035 12.3134 114.897 12.4841 114.792 12.6943C114.687 12.8913 114.634 13.1277 114.634 13.4035V20.2H112.112V13.9551C112.112 12.4841 111.561 11.7487 110.458 11.7487C110.221 11.7487 109.985 11.7881 109.748 11.8669C109.525 11.9325 109.322 12.0376 109.138 12.1821C108.967 12.3134 108.822 12.4841 108.704 12.6943C108.599 12.8913 108.547 13.1277 108.547 13.4035V20.2H106.025ZM127.591 20.4364C126.855 20.4364 126.192 20.3116 125.601 20.0621C125.023 19.8125 124.524 19.4514 124.104 18.9786C123.697 18.5058 123.381 17.941 123.158 17.2844C122.935 16.6146 122.823 15.866 122.823 15.0386C122.823 14.2112 122.935 13.4691 123.158 12.8125C123.381 12.1558 123.697 11.5976 124.104 11.138C124.524 10.6652 125.023 10.304 125.601 10.0544C126.192 9.80492 126.855 9.68015 127.591 9.68015C128.326 9.68015 128.989 9.80492 129.58 10.0544C130.171 10.304 130.67 10.6652 131.077 11.138C131.498 11.5976 131.82 12.1558 132.043 12.8125C132.266 13.4691 132.378 14.2112 132.378 15.0386C132.378 15.866 132.266 16.6146 132.043 17.2844C131.82 17.941 131.498 18.5058 131.077 18.9786C130.67 19.4514 130.171 19.8125 129.58 20.0621C128.989 20.3116 128.326 20.4364 127.591 20.4364ZM127.591 18.4073C128.26 18.4073 128.786 18.2037 129.167 17.7966C129.547 17.3894 129.738 16.7919 129.738 16.0039V14.093C129.738 13.3181 129.547 12.7271 129.167 12.32C128.786 11.9128 128.26 11.7093 127.591 11.7093C126.934 11.7093 126.415 11.9128 126.034 12.32C125.653 12.7271 125.463 13.3181 125.463 14.093V16.0039C125.463 16.7919 125.653 17.3894 126.034 17.7966C126.415 18.2037 126.934 18.4073 127.591 18.4073Z" fill="#287AB8"/>
<path d="M29.294 14.8783V20.139H32.3333V14.8783C33.2229 13.4842 36.8172 7.06071 37.1517 6.39524H33.6174C33.0657 7.36849 29.294 14.8783 29.294 14.8783ZM30.0831 10.3864L28.4112 13.3994C27.5871 11.9687 25.2348 7.86761 24.4807 6.38525H28.0251L30.0831 10.3864Z" fill="#19303D"/>
<path d="M4.97393 17.7265C5.33358 17.7336 5.69279 17.6979 6.04391 17.62C6.2833 17.5642 6.5101 17.4643 6.71264 17.3256C6.8717 17.2172 6.99502 17.0644 7.06706 16.8863C7.13828 16.7033 7.17457 16.5086 7.17406 16.3124C7.17157 16.0904 7.1126 15.8727 7.00268 15.6795C6.89275 15.4864 6.73546 15.324 6.54545 15.2077C6.12638 14.9193 5.40582 14.606 4.38377 14.2677C3.93796 14.1113 3.49212 13.9317 3.0463 13.7287C2.61112 13.534 2.20676 13.2773 1.84593 12.9667C1.48864 12.6541 1.19567 12.2756 0.983252 11.852C0.747489 11.3548 0.632917 10.8094 0.648897 10.2598C0.639443 9.67739 0.75993 9.10009 1.00165 8.56954C1.23481 8.0728 1.5777 7.63489 2.00475 7.28849C2.47122 6.9192 3.0056 6.644 3.57795 6.47827C4.25403 6.27994 4.95627 6.18404 5.66106 6.19378C6.46342 6.17928 7.2638 6.27786 8.03838 6.48659C8.60941 6.64454 9.16235 6.86086 9.68848 7.1321L8.80414 9.53615C8.39659 9.32951 7.97281 9.15646 7.53692 9.01874C6.99453 8.85859 6.4306 8.78283 5.86502 8.79414C5.13053 8.79414 4.60334 8.89507 4.28347 9.09692C4.12654 9.19409 3.99897 9.33166 3.91419 9.49509C3.82944 9.65852 3.79066 9.8417 3.80198 10.0253C3.79116 10.248 3.85081 10.4685 3.97251 10.6558C4.10652 10.8413 4.27718 10.9975 4.47405 11.115C4.71019 11.2624 4.95987 11.3871 5.21969 11.4876C5.50167 11.5986 5.81319 11.7122 6.15425 11.8287C6.86199 12.0894 7.47778 12.3466 8.00161 12.6006C8.48071 12.8234 8.92058 13.1218 9.30392 13.484C9.64895 13.8187 9.91447 14.2256 10.0813 14.6752C10.2639 15.2107 10.3505 15.7738 10.3372 16.3389C10.3372 17.6034 9.89134 18.5839 8.99964 19.2803C8.1081 19.977 6.76614 20.3258 4.97393 20.3269C4.42867 20.3305 3.88386 20.2944 3.34389 20.2188C2.90959 20.1578 2.47963 20.0693 2.05658 19.9542C1.72829 19.8653 1.40655 19.7542 1.0936 19.6214C0.826102 19.5034 0.592055 19.3935 0.416504 19.2887L1.28085 16.8647C1.76013 17.1155 2.26442 17.3155 2.78549 17.462C3.49882 17.6523 4.23557 17.7413 4.97393 17.7265Z" fill="#19303D"/>
<path d="M22.9045 6.39331V9.07353H18.7749V20.1504H15.7222V9.07353H11.4138V6.39331H22.9045Z" fill="#19303D"/>
<path d="M50.3007 6.39331V9.07353H46.1796V20.1504H43.1184V9.07353H38.8101V6.39331H50.3007Z" fill="#19303D"/>
<path d="M58.1433 20.3369C56 20.3369 54.3676 19.7269 53.2464 18.5069C52.1252 17.2868 51.564 15.5489 51.5629 13.2928C51.5456 12.2716 51.7197 11.256 52.0762 10.2982C52.388 9.46895 52.8671 8.71196 53.4839 8.07385C54.0842 7.46621 54.8114 6.99711 55.6137 6.69964C56.4691 6.38183 57.3758 6.22281 58.2887 6.23049C58.7987 6.22694 59.3078 6.26925 59.8101 6.35693C60.2153 6.43025 60.6155 6.52804 61.0088 6.64974C61.3047 6.74189 61.5925 6.85761 61.8699 6.99578C62.0989 7.11225 62.2627 7.20374 62.3713 7.26863L61.5153 9.7259C61.0649 9.48783 60.5902 9.2982 60.0993 9.16025C59.5006 8.99574 58.8814 8.91676 58.2603 8.92567C57.8042 8.92625 57.3516 9.00562 56.9228 9.16025C56.4834 9.31917 56.0864 9.57646 55.7626 9.91223C55.4029 10.2949 55.1279 10.7483 54.9551 11.2432C54.7367 11.8857 54.6338 12.5616 54.6508 13.2396C54.645 13.8258 54.7095 14.4105 54.8431 14.9815C54.9601 15.4856 55.1804 15.9602 55.4901 16.3757C55.7987 16.7747 56.2004 17.0927 56.6603 17.3024C57.2105 17.5442 57.8079 17.6607 58.4091 17.6434C58.7973 17.6462 59.1851 17.62 59.5694 17.5652C59.877 17.5212 60.1819 17.459 60.4822 17.3789C60.7224 17.3185 60.9576 17.24 61.1861 17.1443C61.3889 17.0523 61.5728 16.9674 61.7378 16.8898L62.5636 19.3221C62.01 19.6374 61.4145 19.8737 60.7948 20.0242C59.929 20.2457 59.0373 20.3509 58.1433 20.3369Z" fill="#19303D"/>
<path d="M73.1313 6.41333H76.363V20.1754H73.1313V14.2776H67.9236V20.1754H64.8691V6.41333H67.9236V11.5957H73.1313V6.41333Z" fill="#19303D"/>
</svg>
