<svg width="32" height="32" viewBox="0 0 32 32" fill="none" xmlns="http://www.w3.org/2000/svg">
<path d="M20.9972 3.87036C16.9455 3.87036 13.6638 7.15203 13.6638 11.2037C13.6638 15.2554 16.9455 18.537 20.9972 18.537C25.0488 18.537 28.3305 15.2554 28.3305 11.2037C28.3305 7.15203 25.0488 3.87036 20.9972 3.87036Z" fill="#C7F1FF"/>
<path d="M21.0027 2.05939C15.9427 2.05939 11.8452 6.16605 11.8452 11.2261C11.8452 16.2861 15.9427 20.3927 21.0027 20.3927C26.0719 20.3927 30.1785 16.2861 30.1785 11.2261C30.1785 6.16605 26.0719 2.05939 21.0027 2.05939ZM21.0119 18.5594C16.9602 18.5594 13.6785 15.2777 13.6785 11.2261C13.6785 7.17439 16.9602 3.89272 21.0119 3.89272C25.0635 3.89272 28.3452 7.17439 28.3452 11.2261C28.3452 15.2777 25.0635 18.5594 21.0119 18.5594Z" fill="#19303D"/>
<g opacity="0.6">
<path opacity="0.6" d="M21.5303 9.25195L18 10.8575L21.5303 12.9433L25.0593 10.8575L21.5303 9.25195Z" fill="#19303D"/>
</g>
<g opacity="0.9">
<path opacity="0.7" d="M18 10.8575L21.5303 12.9433V5L18 10.8575Z" fill="#19303D"/>
</g>
<path opacity="0.85" d="M21.53 5V12.9433L25.059 10.8575L21.53 5Z" fill="#19303D"/>
<g opacity="0.7">
<path opacity="0.7" d="M18 11.5264L21.5303 16.5V13.6122L18 11.5264Z" fill="#19303D"/>
</g>
<path opacity="0.85" d="M21.53 13.6122V16.5L25.0618 11.5264L21.53 13.6122Z" fill="#19303D"/>
<path d="M10.9972 13.8704C6.9455 13.8704 3.66383 17.152 3.66383 21.2037C3.66383 25.2554 6.9455 28.537 10.9972 28.537C15.0488 28.537 18.3305 25.2554 18.3305 21.2037C18.3305 17.152 15.0488 13.8704 10.9972 13.8704Z" fill="#C7F1FF"/>
<path d="M11.0027 12.0594C5.94271 12.0594 1.84521 16.1661 1.84521 21.2261C1.84521 26.2861 5.94271 30.3927 11.0027 30.3927C16.0719 30.3927 20.1785 26.2861 20.1785 21.2261C20.1785 16.1661 16.0719 12.0594 11.0027 12.0594ZM11.0119 28.5594C6.96022 28.5594 3.67855 25.2777 3.67855 21.2261C3.67855 17.1744 6.96022 13.8927 11.0119 13.8927C15.0635 13.8927 18.3452 17.1744 18.3452 21.2261C18.3452 25.2777 15.0635 28.5594 11.0119 28.5594Z" fill="#19303D"/>
<g clip-path="url(#clip0_218_244)">
<path d="M14.9537 23.3074L13.4679 24.891C13.4356 24.9254 13.3966 24.9529 13.3531 24.9716C13.3097 24.9904 13.2629 25 13.2155 25H6.17248C6.13888 25 6.106 24.9902 6.0779 24.9719C6.0498 24.9536 6.02769 24.9275 6.01429 24.8969C6.0009 24.8663 5.9968 24.8324 6.0025 24.7995C6.0082 24.7666 6.02345 24.736 6.04637 24.7116L7.53322 23.128C7.56543 23.0937 7.60438 23.0663 7.64766 23.0476C7.69095 23.0288 7.73764 23.0191 7.78486 23.019H14.8275C14.8611 23.019 14.894 23.0288 14.9221 23.0471C14.9502 23.0654 14.9723 23.0915 14.9857 23.1221C14.9991 23.1528 15.0032 23.1866 14.9975 23.2195C14.9918 23.2525 14.9766 23.283 14.9537 23.3074ZM13.4679 20.1185C13.4356 20.0841 13.3966 20.0566 13.3531 20.0379C13.3097 20.0192 13.2629 20.0095 13.2155 20.0095H6.17248C6.13888 20.0095 6.106 20.0193 6.0779 20.0376C6.0498 20.0559 6.02769 20.082 6.01429 20.1126C6.0009 20.1433 5.9968 20.1771 6.0025 20.21C6.0082 20.2429 6.02345 20.2735 6.04637 20.2979L7.53322 21.8815C7.56543 21.9158 7.60438 21.9432 7.64766 21.9619C7.69095 21.9807 7.73764 21.9904 7.78486 21.9905H14.8275C14.8611 21.9905 14.894 21.9807 14.9221 21.9624C14.9502 21.9441 14.9723 21.918 14.9857 21.8874C14.9991 21.8567 15.0032 21.8229 14.9975 21.79C14.9918 21.7571 14.9766 21.7265 14.9537 21.7021L13.4679 20.1185ZM6.17248 18.981H13.2155C13.2629 18.981 13.3097 18.9713 13.3531 18.9526C13.3966 18.9338 13.4356 18.9064 13.4679 18.872L14.9537 17.2884C14.9766 17.264 14.9918 17.2334 14.9975 17.2005C15.0032 17.1676 14.9991 17.1337 14.9857 17.1031C14.9723 17.0725 14.9502 17.0464 14.9221 17.0281C14.894 17.0098 14.8611 17 14.8275 17H7.78486C7.73764 17.0001 7.69095 17.0098 7.64766 17.0285C7.60438 17.0473 7.56543 17.0746 7.53322 17.109L6.04676 18.6926C6.02385 18.717 6.00861 18.7475 6.0029 18.7804C5.99719 18.8132 6.00125 18.8471 6.0146 18.8777C6.02795 18.9083 6.05 18.9344 6.07804 18.9527C6.10609 18.9711 6.13891 18.9809 6.17248 18.981Z" fill="#19303D"/>
</g>
<defs>
<clipPath id="clip0_218_244">
<rect width="9" height="8" fill="white" transform="translate(6 17)"/>
</clipPath>
</defs>
</svg>
