<svg width="24" height="24" viewBox="0 0 24 24" fill="none" xmlns="http://www.w3.org/2000/svg">
<path d="M11.9971 4.22266C7.57709 4.22266 3.99709 7.80266 3.99709 12.2227C3.99709 16.6427 7.57709 20.2227 11.9971 20.2227C16.4171 20.2227 19.9971 16.6427 19.9971 12.2227C19.9971 7.80266 16.4171 4.22266 11.9971 4.22266Z" fill="#C7F1FF"/>
<path d="M12.0032 2.24609C6.48318 2.24609 2.01318 6.72609 2.01318 12.2461C2.01318 17.7661 6.48318 22.2461 12.0032 22.2461C17.5332 22.2461 22.0132 17.7661 22.0132 12.2461C22.0132 6.72609 17.5332 2.24609 12.0032 2.24609ZM12.0132 20.2461C7.59318 20.2461 4.01318 16.6661 4.01318 12.2461C4.01318 7.82609 7.59318 4.24609 12.0132 4.24609C16.4332 4.24609 20.0132 7.82609 20.0132 12.2461C20.0132 16.6661 16.4332 20.2461 12.0132 20.2461Z" fill="#19303D"/>
<path d="M15.5733 7.71133C15.5252 7.71137 15.4771 7.69939 15.435 7.67538C14.2803 7.08126 13.2821 6.82966 12.0858 6.83072C10.8955 6.83178 9.76562 7.11533 8.73815 7.68132C8.59394 7.7596 8.41355 7.70566 8.32926 7.56145C8.25098 7.41725 8.30492 7.23084 8.44913 7.15256C9.56674 6.5444 10.7928 6.23072 12.0853 6.22957C13.3658 6.22843 14.4842 6.50998 15.7111 7.14011C15.8614 7.21813 15.9157 7.39843 15.8377 7.54277C15.7837 7.65103 15.6815 7.71123 15.5733 7.71133ZM6.97359 10.875C6.91347 10.8751 6.85334 10.8571 6.7992 10.8211C6.66085 10.725 6.63063 10.5387 6.72669 10.4003C7.32109 9.55819 8.07796 8.89624 8.97928 8.43255C10.866 7.45701 13.2827 7.44885 15.1772 8.42104C16.0793 8.88313 16.8374 9.53772 17.4332 10.3728C17.5296 10.505 17.4997 10.6974 17.3615 10.7937C17.2233 10.89 17.0369 10.8601 16.9406 10.7219C16.3989 9.96493 15.7131 9.3704 14.9011 8.95632C13.175 8.07415 10.9688 8.07611 9.25027 8.96734C8.43308 9.38888 7.74829 9.99064 7.20792 10.7486C7.15991 10.8328 7.06977 10.8749 6.97359 10.875ZM10.7372 18.1276C10.6591 18.1277 10.5809 18.0977 10.5268 18.0376C10.0033 17.5151 9.72045 17.1787 9.31703 16.4517C8.90157 15.7126 8.68436 14.8111 8.6835 13.8432C8.68192 12.0578 10.2076 10.6016 12.0832 10.6C13.9588 10.5983 15.487 12.0517 15.4886 13.8372C15.4887 14.0055 15.3566 14.1379 15.1883 14.138C15.0199 14.1382 14.8876 14.006 14.8874 13.8377C14.8861 12.3829 13.6287 11.1998 12.0837 11.2011C10.5387 11.2025 9.28337 12.3879 9.28466 13.8427C9.28542 14.7083 9.4785 15.5077 9.84578 16.1566C10.2311 16.8476 10.4959 17.142 10.9592 17.6104C11.0735 17.7306 11.0737 17.9169 10.9596 18.0373C10.8935 18.0974 10.8154 18.1276 10.7372 18.1276ZM15.0465 17.0117C14.3312 17.0123 13.6998 16.8325 13.1825 16.4783C12.2862 15.8719 11.7503 14.8865 11.7494 13.8405C11.7492 13.6722 11.8814 13.5398 12.0497 13.5397C12.218 13.5395 12.3504 13.6716 12.3505 13.84C12.3513 14.6876 12.7848 15.4867 13.5187 15.979C13.9458 16.2672 14.4448 16.405 15.046 16.4045C15.1903 16.4044 15.4307 16.3861 15.6711 16.3438C15.8334 16.3136 15.9898 16.4217 16.02 16.59C16.0502 16.7523 15.9422 16.9087 15.7739 16.9389C15.4313 17.0053 15.1307 17.0116 15.0465 17.0117ZM13.8393 18.2511C13.8153 18.2511 13.7852 18.2452 13.7612 18.2392C12.8051 17.9755 12.1796 17.6214 11.5237 16.9787C10.6814 16.1439 10.2175 15.0321 10.2164 13.8419C10.2156 12.868 11.0445 12.0737 12.0664 12.0728C13.0884 12.0719 13.9187 12.8647 13.9196 13.8386C13.9201 14.4818 14.4797 15.0043 15.171 15.0037C15.8623 15.0031 16.4209 14.4796 16.4204 13.8364C16.4184 11.57 14.463 9.7322 12.0584 9.73433C10.3511 9.73584 8.78891 10.6871 8.08686 12.1605C7.85284 12.6477 7.73312 13.2189 7.73367 13.8441C7.73409 14.313 7.77683 15.0523 8.13837 16.0139C8.19863 16.1701 8.12063 16.3445 7.96438 16.3988C7.80813 16.459 7.63372 16.375 7.57949 16.2248C7.28422 15.4375 7.13925 14.6561 7.13853 13.8446C7.13789 13.1232 7.27558 12.4678 7.54559 11.8965C8.34364 10.2185 10.1161 9.12889 12.0578 9.12716C14.7931 9.12474 17.0192 11.2328 17.0215 13.8298C17.0224 14.8037 16.1935 15.5979 15.1715 15.5988C14.1496 15.5998 13.3193 14.807 13.3184 13.8331C13.3178 13.1899 12.7583 12.6673 12.067 12.668C11.3756 12.6686 10.817 13.1921 10.8176 13.8353C10.8185 14.8633 11.2161 15.8248 11.9442 16.5455C12.5158 17.1101 13.0631 17.4222 13.9109 17.6559C14.0733 17.6979 14.1636 17.8661 14.1217 18.0224C14.0917 18.1607 13.9656 18.251 13.8393 18.2511Z" fill="#19303D"/>
<path fill-rule="evenodd" clip-rule="evenodd" d="M8.32921 7.5598C8.4135 7.70401 8.59389 7.75795 8.7381 7.67967C9.76557 7.11367 10.8955 6.83013 12.0858 6.82907C13.2821 6.82801 14.2802 7.07961 15.435 7.67373C15.4771 7.69774 15.5252 7.70972 15.5733 7.70968C15.6815 7.70958 15.7836 7.64938 15.8376 7.54112C15.9156 7.39677 15.8614 7.21648 15.711 7.13846C14.4841 6.50833 13.3657 6.22678 12.0852 6.22792C10.7928 6.22906 9.56669 6.54275 8.44908 7.15091C8.30487 7.22919 8.25093 7.4156 8.32921 7.5598ZM8.40132 7.06305C8.20795 7.16805 8.13707 7.41545 8.24132 7.60751L8.24287 7.61027C8.35304 7.79874 8.59179 7.87288 8.78581 7.76756C9.79804 7.20996 10.9119 6.93011 12.0859 6.92907C13.2643 6.92803 14.2464 7.17494 15.3875 7.76175C15.445 7.79407 15.5096 7.80973 15.5734 7.80968C15.7195 7.80955 15.8555 7.72797 15.9264 7.58722C16.0301 7.39353 15.9561 7.15297 15.7571 7.0497C14.5172 6.4129 13.3828 6.12677 12.0852 6.12792C10.7761 6.12908 9.53363 6.4469 8.40132 7.06305ZM6.74212 10.9016C6.55673 10.7728 6.51811 10.5237 6.6445 10.3416C7.24797 9.48665 8.01748 8.81324 8.93339 8.34203C10.8487 7.35175 13.2994 7.34344 15.2227 8.33039C16.1392 8.79982 16.9095 9.46505 17.5146 10.3131C17.643 10.4902 17.6028 10.7457 17.4186 10.8741C17.237 11.0006 16.9881 10.9627 16.8589 10.778C16.3263 10.0339 15.6528 9.45028 14.8556 9.04375C13.1581 8.17619 10.9859 8.17819 9.29626 9.05446C8.49508 9.46774 7.82304 10.0575 7.29198 10.8012C7.22212 10.9194 7.09644 10.9733 6.97362 10.9734C6.89314 10.9734 6.8138 10.9493 6.74376 10.9027L6.74212 10.9016ZM7.20787 10.7469C7.74824 9.98899 8.43303 9.38722 9.25022 8.96569C10.9687 8.07446 13.175 8.0725 14.9011 8.95467C15.713 9.36874 16.3988 9.96328 16.9406 10.7203C17.0369 10.8584 17.2233 10.8883 17.3614 10.792C17.4996 10.6957 17.5295 10.5033 17.4332 10.3711C16.8373 9.53607 16.0793 8.88148 15.1771 8.41939C13.2826 7.4472 10.866 7.45536 8.97923 8.4309C8.07791 8.89459 7.32104 9.55653 6.72664 10.3987C6.63058 10.537 6.6608 10.7234 6.79915 10.8194C6.85329 10.8554 6.91342 10.8734 6.97353 10.8734C7.06972 10.8733 7.15986 10.8311 7.20787 10.7469ZM9.93307 16.1063C10.3126 16.7869 10.5709 17.074 11.0303 17.5385L11.0316 17.5398C11.1826 17.6985 11.1828 17.9455 11.0321 18.1044L11.0271 18.1097C10.9438 18.1855 10.8419 18.2259 10.7373 18.226C10.6353 18.2261 10.5297 18.1873 10.4544 18.1051C9.92679 17.5783 9.63796 17.2346 9.22966 16.4988C8.80469 15.7427 8.58432 14.8239 8.58345 13.8417C8.58181 11.9965 10.1568 10.5 12.083 10.4983C14.0092 10.4966 15.5869 11.9902 15.5885 13.8354C15.5887 14.059 15.4119 14.2362 15.1883 14.2364C14.9648 14.2366 14.7876 14.0597 14.7874 13.8362C14.7861 12.4421 13.5792 11.2981 12.0837 11.2995C10.5883 11.3008 9.38337 12.4469 9.38461 13.8409C9.38536 14.6923 9.5756 15.4747 9.93307 16.1063ZM9.31698 16.45C9.7204 17.1771 10.0032 17.5135 10.5267 18.036C10.5809 18.0961 10.659 18.1261 10.7372 18.126C10.8153 18.1259 10.8935 18.0958 10.9595 18.0356C11.0737 17.9153 11.0735 17.7289 10.9592 17.6088C10.4959 17.1403 10.2311 16.846 9.84573 16.155C9.47845 15.5061 9.28537 14.7067 9.28461 13.841C9.28331 12.3862 10.5387 11.2008 12.0836 11.1995C13.6286 11.1981 14.8861 12.3813 14.8874 13.8361C14.8875 14.0044 15.0199 14.1365 15.1882 14.1364C15.3565 14.1362 15.4887 14.0039 15.4885 13.8355C15.4869 12.0501 13.9587 10.5967 12.0831 10.5983C10.2075 10.6 8.68187 12.0561 8.68345 13.8416C8.68431 14.8094 8.90152 15.711 9.31698 16.45ZM13.5746 15.8945C13.9823 16.1696 14.461 16.3034 15.0459 16.3029C15.1839 16.3027 15.4186 16.2851 15.6538 16.2437C15.8717 16.2031 16.0784 16.3489 16.1183 16.5703C16.1587 16.7881 16.0133 16.9955 15.7922 17.0355C15.4413 17.1035 15.1342 17.1099 15.0466 17.11C14.3142 17.1107 13.6625 16.9265 13.1262 16.5593C12.2038 15.9351 11.6503 14.9194 11.6493 13.8389C11.6491 13.6154 11.826 13.4382 12.0496 13.438C12.2731 13.4378 12.4503 13.6147 12.4505 13.8382C12.4512 14.6512 12.8673 15.42 13.5746 15.8945ZM13.7345 18.3339C12.7633 18.0661 12.1225 17.7039 11.4537 17.0485C10.5924 16.1948 10.1175 15.0572 10.1164 13.8403C10.1155 12.8069 10.9935 11.9721 12.0663 11.9712C13.1391 11.9702 14.0186 12.8035 14.0195 13.8368C14.02 14.4185 14.5282 14.9026 15.1709 14.9021C15.8135 14.9015 16.3208 14.4164 16.3203 13.8348C16.3184 11.6292 14.4135 9.83059 12.0584 9.83268C10.3872 9.83416 8.86152 10.7654 8.17709 12.2019C7.95053 12.6735 7.83308 13.2298 7.83362 13.8423C7.83403 14.3033 7.87582 15.03 8.23192 15.977C8.31157 16.1835 8.2093 16.4169 7.99872 16.491C7.79006 16.5705 7.55867 16.459 7.4856 16.2577C7.18643 15.4599 7.03921 14.6668 7.03848 13.843C7.03783 13.1088 7.17799 12.4385 7.45513 11.8521C8.27062 10.1375 10.0795 9.02727 12.0577 9.02551C14.8432 9.02304 17.1191 11.171 17.1215 13.8281C17.1224 14.8614 16.2444 15.6962 15.1716 15.6972C14.0987 15.6981 13.2193 14.8649 13.2184 13.8315C13.2178 13.2499 12.7097 12.7657 12.067 12.7663C11.4243 12.7669 10.917 13.2519 10.9175 13.8336C10.9184 14.8352 11.3056 15.771 12.0145 16.4728C12.5728 17.0243 13.1046 17.3282 13.9367 17.5577C14.1543 17.6144 14.2728 17.838 14.2188 18.0443C14.1774 18.2299 14.0091 18.3493 13.8394 18.3495C13.8024 18.3495 13.7624 18.3409 13.7369 18.3346L13.7345 18.3339ZM14.1216 18.0208C14.1635 17.8644 14.0732 17.6962 13.9109 17.6543C13.063 17.4206 12.5157 17.1085 11.9441 16.5439C11.2161 15.8231 10.8185 14.8616 10.8175 13.8337C10.817 13.1904 11.3756 12.6669 12.0669 12.6663C12.7582 12.6657 13.3178 13.1882 13.3184 13.8314C13.3192 14.8053 14.1495 15.5981 15.1715 15.5972C16.1934 15.5963 17.0223 14.802 17.0215 13.8282C17.0192 11.2312 14.793 9.12309 12.0578 9.12551C10.116 9.12723 8.34359 10.2169 7.54554 11.8948C7.27553 12.4662 7.13784 13.1215 7.13848 13.8429C7.1392 14.6545 7.28417 15.4359 7.57944 16.2231C7.63367 16.3734 7.80808 16.4574 7.96433 16.3971C8.12058 16.3429 8.19863 16.1684 8.13837 16.0122C7.77683 15.0507 7.73404 14.3113 7.73362 13.8424C7.73307 13.2172 7.85279 12.646 8.08681 12.1589C8.78886 10.6854 10.351 9.73419 12.0583 9.73268C14.4629 9.73055 16.4183 11.5683 16.4203 13.8347C16.4209 14.4779 15.8623 15.0014 15.1709 15.0021C14.4796 15.0027 13.9201 14.4802 13.9195 13.8369C13.9186 12.863 13.0883 12.0703 12.0664 12.0712C11.0444 12.0721 10.2155 12.8663 10.2164 13.8402C10.2175 15.0305 10.6813 16.1422 11.5237 16.9771C12.1795 17.6197 12.805 17.9739 13.7611 18.2375C13.7852 18.2435 13.8152 18.2495 13.8393 18.2495C13.9655 18.2494 14.0917 18.1591 14.1216 18.0208Z" fill="#19303D"/>
</svg>
